<svg xml:space="preserve" viewBox="0 0 100 100" y="0" x="0" xmlns="http://www.w3.org/2000/svg" id="圖層_1" version="1.1" preserveAspectRatio="xMidYMid" width="263" height="263" xmlns:xlink="http://www.w3.org/1999/xlink" style="margin-top:0px;margin-right:0px;margin-bottom:0px;margin-left:0px;display:block;shape-rendering:auto;background-position-x:0%;background-position-y:0%;background-size:auto;background-origin:padding-box;background-clip:border-box;background:scroll rgba(210, 211, 212, 0) none  repeat;width:263px;height:263px;;animation:none"><g class="ldl-scale" style="transform-origin:50px 50px;transform:matrix(0.87, 0, 0, 0.87, 0, 0);;animation:none"><g class="ldl-ani"><g class="ldl-layer"><g class="ldl-ani" style="transform-box:view-box;transform-origin:50px 50px;transform:matrix(0.91, 0, 0, 0.91, 0, 0);animation-duration:100s;animation-timing-function:linear;animation-delay:-100s;animation-iteration-count:infinite;animation-direction:normal;animation-fill-mode:forwards;animation-play-state:paused;animation-name:animate;animation-timeline:auto;animation-range-start:normal;animation-range-end:normal;;animation:none"><path d="M28.8 42.7h11.6v10.6H28.8z" fill="#fff" style="stroke-width:0.98px;fill:rgb(221, 235, 242);;animation:none"></path></g></g>
<g class="ldl-layer"><g class="ldl-ani" style="transform-box:view-box;transform-origin:50px 50px;transform:matrix(0.91, 0, 0, 0.91, 0, 0);animation-duration:100s;animation-timing-function:linear;animation-delay:-100s;animation-iteration-count:infinite;animation-direction:normal;animation-fill-mode:forwards;animation-play-state:paused;animation-name:animate;animation-timeline:auto;animation-range-start:normal;animation-range-end:normal;;animation:none"><path d="M44.2 71.7h11.6v10.7H44.2z" fill="#fff" style="stroke-width:0.98px;fill:rgb(221, 235, 242);;animation:none"></path></g></g>
<g class="ldl-layer"><g class="ldl-ani" style="transform-box:view-box;transform-origin:50px 50px;transform:matrix(0.91, 0, 0, 0.91, 0, 0);animation-duration:100s;animation-timing-function:linear;animation-delay:-100s;animation-iteration-count:infinite;animation-direction:normal;animation-fill-mode:forwards;animation-play-state:paused;animation-name:animate;animation-timeline:auto;animation-range-start:normal;animation-range-end:normal;;animation:none"><path d="M44.2 57.2h11.6v10.7H44.2z" fill="#fff" style="stroke-width:0.98px;fill:rgb(221, 235, 242);;animation:none"></path></g></g>
<g class="ldl-layer"><g class="ldl-ani" style="transform-box:view-box;transform-origin:50px 50px;transform:matrix(0.91, 0, 0, 0.91, 0, 0);animation-duration:100s;animation-timing-function:linear;animation-delay:-100s;animation-iteration-count:infinite;animation-direction:normal;animation-fill-mode:forwards;animation-play-state:paused;animation-name:animate;animation-timeline:auto;animation-range-start:normal;animation-range-end:normal;;animation:none"><path d="M44.2 42.7h11.6v10.6H44.2z" fill="#fff" style="stroke-width:0.98px;fill:rgb(221, 235, 242);;animation:none"></path></g></g>
<g class="ldl-layer"><g class="ldl-ani" style="transform-box:view-box;transform-origin:50px 50px;transform:matrix(0.91, 0, 0, 0.91, 0, 0);animation-duration:100s;animation-timing-function:linear;animation-delay:-100s;animation-iteration-count:infinite;animation-direction:normal;animation-fill-mode:forwards;animation-play-state:paused;animation-name:animate;animation-timeline:auto;animation-range-start:normal;animation-range-end:normal;;animation:none"><path d="M28.8 57.2h11.6v10.7H28.8z" fill="#fff" style="stroke-width:0.98px;fill:rgb(221, 235, 242);;animation:none"></path></g></g>
<g class="ldl-layer"><g class="ldl-ani" style="transform-box:view-box;transform-origin:50px 50px;transform:matrix(0.91, 0, 0, 0.91, 0, 0);animation-duration:100s;animation-timing-function:linear;animation-delay:-100s;animation-iteration-count:infinite;animation-direction:normal;animation-fill-mode:forwards;animation-play-state:paused;animation-name:animate;animation-timeline:auto;animation-range-start:normal;animation-range-end:normal;;animation:none"><path d="M28.8 71.7h11.6v10.7H28.8z" fill="#fff" style="stroke-width:0.98px;fill:rgb(221, 235, 242);;animation:none"></path></g></g>
<g class="ldl-layer"><g class="ldl-ani" style="transform-box:view-box;transform-origin:50px 50px;transform:matrix(0.91, 0, 0, 0.91, 0, 0);animation-duration:100s;animation-timing-function:linear;animation-delay:-100s;animation-iteration-count:infinite;animation-direction:normal;animation-fill-mode:forwards;animation-play-state:paused;animation-name:animate;animation-timeline:auto;animation-range-start:normal;animation-range-end:normal;;animation:none"><path fill="#fff" d="M13.3 42.6v10.7h11.6V42.7H14.3c-.4 0-.7-.1-1-.1z" style="stroke-width:0.98px;fill:rgb(221, 235, 242);;animation:none"></path></g></g>
<g class="ldl-layer"><g class="ldl-ani" style="transform-box:view-box;transform-origin:50px 50px;transform:matrix(0.91, 0, 0, 0.91, 0, 0);animation-duration:100s;animation-timing-function:linear;animation-delay:-100s;animation-iteration-count:infinite;animation-direction:normal;animation-fill-mode:forwards;animation-play-state:paused;animation-name:animate;animation-timeline:auto;animation-range-start:normal;animation-range-end:normal;;animation:none"><path fill="#fff" d="M13.3 81.5c0 .5.4.9.9 1h10.7V71.7H13.3v9.8z" style="stroke-width:0.98px;fill:rgb(221, 235, 242);;animation:none"></path></g></g>
<g class="ldl-layer"><g class="ldl-ani" style="transform-box:view-box;transform-origin:50px 50px;transform:matrix(0.91, 0, 0, 0.91, 0, 0);animation-duration:100s;animation-timing-function:linear;animation-delay:-100s;animation-iteration-count:infinite;animation-direction:normal;animation-fill-mode:forwards;animation-play-state:paused;animation-name:animate;animation-timeline:auto;animation-range-start:normal;animation-range-end:normal;;animation:none"><path fill="#e0e0e0" d="M35.5 28.2V17.6c0-3.2-2.6-5.8-5.8-5.8s-5.8 2.6-5.8 5.8V28.2c0 3.2 2.6 5.8 5.8 5.8s5.8-2.6 5.8-5.8z" style="stroke-width:0.98px;fill:rgb(161, 207, 231);;animation:none"></path></g></g>
<g class="ldl-layer"><g class="ldl-ani" style="transform-box:view-box;transform-origin:50px 50px;transform:matrix(0.91, 0, 0, 0.91, 0, 0);animation-duration:100s;animation-timing-function:linear;animation-delay:-100s;animation-iteration-count:infinite;animation-direction:normal;animation-fill-mode:forwards;animation-play-state:paused;animation-name:animate;animation-timeline:auto;animation-range-start:normal;animation-range-end:normal;;animation:none"><path d="M13.3 57.2h11.6v10.7H13.3z" fill="#fff" style="stroke-width:0.98px;fill:rgb(221, 235, 242);;animation:none"></path></g></g>
<g class="ldl-layer"><g class="ldl-ani" style="transform-box:view-box;transform-origin:50px 50px;transform:matrix(0.91, 0, 0, 0.91, 0, 0);animation-duration:100s;animation-timing-function:linear;animation-delay:-100s;animation-iteration-count:infinite;animation-direction:normal;animation-fill-mode:forwards;animation-play-state:paused;animation-name:animate;animation-timeline:auto;animation-range-start:normal;animation-range-end:normal;;animation:none"><path fill="#fff" d="M75.1 82.4h10.7c.5 0 .9-.4.9-1v-9.8H75.1v10.8z" style="stroke-width:0.98px;fill:rgb(221, 235, 242);;animation:none"></path></g></g>
<g class="ldl-layer"><g class="ldl-ani" style="transform-box:view-box;transform-origin:50px 50px;transform:matrix(0.91, 0, 0, 0.91, 0, 0);animation-duration:100s;animation-timing-function:linear;animation-delay:-100s;animation-iteration-count:infinite;animation-direction:normal;animation-fill-mode:forwards;animation-play-state:paused;animation-name:animate;animation-timeline:auto;animation-range-start:normal;animation-range-end:normal;;animation:none"><path fill="#fff" d="M75.1 42.7v10.6h11.6V42.6c-.3.1-.6.1-1 .1H75.1z" style="stroke-width:0.98px;fill:rgb(221, 235, 242);;animation:none"></path></g></g>
<g class="ldl-layer"><g class="ldl-ani" style="transform-box:view-box;transform-origin:50px 50px;transform:matrix(0.91, 0, 0, 0.91, 0, 0);animation-duration:100s;animation-timing-function:linear;animation-delay:-100s;animation-iteration-count:infinite;animation-direction:normal;animation-fill-mode:forwards;animation-play-state:paused;animation-name:animate;animation-timeline:auto;animation-range-start:normal;animation-range-end:normal;;animation:none"><path d="M75.1 57.2h11.6v10.7H75.1z" fill="#fff" style="stroke-width:0.98px;fill:rgb(221, 235, 242);;animation:none"></path></g></g>
<g class="ldl-layer"><g class="ldl-ani" style="transform-box:view-box;transform-origin:50px 50px;transform:matrix(0.91, 0, 0, 0.91, 0, 0);animation-duration:100s;animation-timing-function:linear;animation-delay:-100s;animation-iteration-count:infinite;animation-direction:normal;animation-fill-mode:forwards;animation-play-state:paused;animation-name:animate;animation-timeline:auto;animation-range-start:normal;animation-range-end:normal;;animation:none"><path d="M59.7 42.7h11.6v10.6H59.7z" fill="#fff" style="stroke-width:0.98px;fill:rgb(221, 235, 242);;animation:none"></path></g></g>
<g class="ldl-layer"><g class="ldl-ani" style="transform-box:view-box;transform-origin:50px 50px;transform:matrix(0.91, 0, 0, 0.91, 0, 0);animation-duration:100s;animation-timing-function:linear;animation-delay:-100s;animation-iteration-count:infinite;animation-direction:normal;animation-fill-mode:forwards;animation-play-state:paused;animation-name:animate;animation-timeline:auto;animation-range-start:normal;animation-range-end:normal;;animation:none"><path d="M59.7 57.2h11.6v10.7H59.7z" fill="#fff" style="stroke-width:0.98px;fill:rgb(221, 235, 242);;animation:none"></path></g></g>
<g class="ldl-layer"><g class="ldl-ani" style="transform-box:view-box;transform-origin:50px 50px;transform:matrix(0.91, 0, 0, 0.91, 0, 0);animation-duration:100s;animation-timing-function:linear;animation-delay:-100s;animation-iteration-count:infinite;animation-direction:normal;animation-fill-mode:forwards;animation-play-state:paused;animation-name:animate;animation-timeline:auto;animation-range-start:normal;animation-range-end:normal;;animation:none"><path fill="#e0e0e0" d="M75.4 18.3v-.8c0-3.2-2.6-5.8-5.8-5.8-3.2 0-5.8 2.6-5.8 5.8V28.1c0 3.2 2.6 5.8 5.8 5.8 3.2 0 5.8-2.6 5.8-5.8v-9.8z" style="stroke-width:0.98px;fill:rgb(161, 207, 231);;animation:none"></path></g></g>
<g class="ldl-layer"><g class="ldl-ani" style="transform-box:view-box;transform-origin:50px 50px;transform:matrix(0.91, 0, 0, 0.91, 0, 0);animation-duration:100s;animation-timing-function:linear;animation-delay:-100s;animation-iteration-count:infinite;animation-direction:normal;animation-fill-mode:forwards;animation-play-state:paused;animation-name:animate;animation-timeline:auto;animation-range-start:normal;animation-range-end:normal;;animation:none"><path d="M59.7 71.7h11.6v10.7H59.7z" fill="#fff" style="stroke-width:0.98px;fill:rgb(221, 235, 242);;animation:none"></path></g></g>
<g class="ldl-layer"><g class="ldl-ani" style="transform-box:view-box;transform-origin:50px 50px;transform:matrix(0.91, 0, 0, 0.91, 0, 0);animation-duration:100s;animation-timing-function:linear;animation-delay:-100s;animation-iteration-count:infinite;animation-direction:normal;animation-fill-mode:forwards;animation-play-state:paused;animation-name:animate;animation-timeline:auto;animation-range-start:normal;animation-range-end:normal;;animation:none"><path fill="#333" d="M85.7 18.3h-6.3v-.8c0-5.4-4.4-9.8-9.8-9.8s-9.8 4.4-9.8 9.8v.8H39.5v-.8c0-5.4-4.4-9.8-9.8-9.8s-9.8 4.4-9.8 9.8v.8h-5.7c-3.7 0-6.8 3-6.8 6.8v56.4c0 3.7 3 6.8 6.8 6.8h71.5c3.7 0 6.8-3 6.8-6.8V25.1c0-3.7-3-6.8-6.8-6.8zM24.9 82.4H14.2c-.5 0-.9-.4-.9-1v-9.8h11.6v10.8zm0-14.5H13.3V57.2h11.6v10.7zm0-14.6H13.3V42.6c.3.1.6.1 1 .1h10.6v10.6zm-1-25.1V17.6c0-3.2 2.6-5.8 5.8-5.8s5.8 2.6 5.8 5.8V28.2c0 3.2-2.6 5.8-5.8 5.8s-5.8-2.6-5.8-5.8zm16.4 54.2H28.8V71.7h11.6v10.7zm0-14.5H28.8V57.2h11.6v10.7zm0-14.6H28.8V42.7h11.6v10.6zm15.5 29.1H44.2V71.7h11.6v10.7zm0-14.5H44.2V57.2h11.6v10.7zm0-14.6H44.2V42.7h11.6v10.6zm15.5 29.1H59.7V71.7h11.6v10.7zm0-14.5H59.7V57.2h11.6v10.7zm0-14.6H59.7V42.7h11.6v10.6zm-1.7-19.4c-3.2 0-5.8-2.6-5.8-5.8V17.5c0-3.2 2.6-5.8 5.8-5.8 3.2 0 5.8 2.6 5.8 5.8V28.1c0 3.3-2.6 5.8-5.8 5.8zm17.1 47.6c0 .5-.4.9-.9 1H75.1V71.7h11.6v9.8zm0-13.6H75.1V57.2h11.6v10.7zm0-14.6H75.1V42.7h10.6c.3 0 .7 0 1-.1v10.7z" style="stroke-width:0.98px;fill:rgb(0, 127, 189);;animation:none"></path></g></g>
<metadata xmlns:d="https://loading.io/stock/"></metadata></g></g>
<STYLE type="text/css">@keyframes animate { 0.00% {transform: translate(0.00px,0.00px) rotate(0.00deg) scale(0.91, 0.91) skew(0deg, 0.00deg) ;opacity: 1.00;}4.00% {transform: translate(0.00px,0.00px) rotate(0.00deg) scale(0.91, 0.91) ;}8.00% {animation-timing-function: cubic-bezier(0.69,0.60,0.35,0.27);transform: translate(0.00px,0.00px) rotate(0.00deg) scale(0.91, 0.91) ;}14.00% {transform: translate(0.00px,0.00px) rotate(0.00deg) scale(0.93, 0.93) ;}18.00% {transform: translate(0.00px,0.00px) rotate(0.00deg) scale(0.94, 0.94) ;}22.00% {animation-timing-function: cubic-bezier(0.67,0.66,0.34,0.33);transform: translate(0.00px,0.00px) rotate(0.00deg) scale(0.96, 0.96) ;}26.00% {transform: translate(0.00px,0.00px) rotate(0.00deg) scale(0.97, 0.97) ;}30.00% {transform: translate(0.00px,0.00px) rotate(0.00deg) scale(0.99, 0.99) ;}34.00% {animation-timing-function: cubic-bezier(0.65,0.71,0.32,0.38);transform: translate(0.00px,0.00px) rotate(0.00deg) scale(1.01, 1.01) ;}40.00% {animation-timing-function: cubic-bezier(0.64,0.74,0.31,0.41);transform: translate(0.00px,0.00px) rotate(0.00deg) scale(1.02, 1.02) ;}46.00% {animation-timing-function: cubic-bezier(0.60,0.91,0.23,0.63);transform: translate(0.00px,0.00px) rotate(0.00deg) scale(1.03, 1.03) ;}50.00% {transform: translate(0.00px,0.00px) rotate(0.00deg) scale(1.03, 1.03) ;}54.00% {transform: translate(0.00px,0.00px) rotate(0.00deg) scale(1.03, 1.03) ;}58.00% {animation-timing-function: cubic-bezier(0.69,0.60,0.35,0.27);transform: translate(0.00px,0.00px) rotate(0.00deg) scale(1.03, 1.03) ;}64.00% {transform: translate(0.00px,0.00px) rotate(0.00deg) scale(1.01, 1.01) ;}68.00% {transform: translate(0.00px,0.00px) rotate(0.00deg) scale(1.00, 1.00) ;}72.00% {animation-timing-function: cubic-bezier(0.67,0.66,0.34,0.33);transform: translate(0.00px,0.00px) rotate(0.00deg) scale(0.98, 0.98) ;}76.00% {animation-timing-function: cubic-bezier(0.66,0.68,0.33,0.35);transform: translate(0.00px,0.00px) rotate(0.00deg) scale(0.97, 0.97) ;}82.00% {animation-timing-function: cubic-bezier(0.65,0.71,0.32,0.38);transform: translate(0.00px,0.00px) rotate(0.00deg) scale(0.94, 0.94) ;}88.00% {animation-timing-function: cubic-bezier(0.65,0.73,0.31,0.40);transform: translate(0.00px,0.00px) rotate(0.00deg) scale(0.92, 0.92) ;}94.00% {animation-timing-function: cubic-bezier(0.63,0.80,0.28,0.48);transform: translate(0.00px,0.00px) rotate(0.00deg) scale(0.91, 0.91) ;}100.00% {animation-timing-function: cubic-bezier(0.63,0.80,0.28,0.48);transform: translate(0.00px,0.00px) rotate(0.00deg) scale(0.91, 0.91) ;} }</STYLE><!-- [ldio] generated by https://loading.io --></svg>